<mxfile host="app.diagrams.net" modified="2023-08-01T07:40:23.620Z" agent="Mozilla/5.0 (Windows NT 10.0; Win64; x64) AppleWebKit/537.36 (KHTML, like Gecko) Chrome/115.0.0.0 Safari/537.36" version="21.6.6" etag="vBc-J9xriYjYcBCb92Dm" type="github">
  <diagram name="페이지-1" id="ZZRigwcFWsz_CDWf7XxH">
    <mxGraphModel>
      <root>
        <mxCell id="0" />
        <mxCell id="1" parent="0" />
      </root>
    </mxGraphModel>
  </diagram>
</mxfile>
